<svg xmlns="http://www.w3.org/2000/svg" version="1.1" xmlns:xlink="http://www.w3.org/1999/xlink" width="864" height="864"><svg xmlns="http://www.w3.org/2000/svg" version="1.1" xmlns:xlink="http://www.w3.org/1999/xlink" width="864" height="864"><svg xmlns="http://www.w3.org/2000/svg" x="0px" y="0px" viewBox="0 0 864 864" enable-background="new 0 0 864 864"><style>.fs0,.ls0{fill:#1f3a8a}</style><g transform="translate(-22.8663316583 -22.8663316583) scale(1.05293)"><path class="ls0" d="M420.5,134.8v594.3c-18.5-0.7-36.5-3.1-54-7c-0.1,0-0.2,0-0.4-0.1L321,648.7l-46.5-75.6L250,593.6l-41.5,34.6	c-11.9-13.5-22.6-28.2-31.9-43.7c-26.7-44.6-42.1-96.8-42.1-152.5c0-72.5,25.9-138.9,69-190.5l41.5,34.6	c-36.6,43.7-56.5,98.3-56.5,155.9c0,41.8,10.4,81.9,30.1,117.4l27.2-22.7l41.9-34.9l28.6,46.5l50.1,81.4V141.9	C384,137.9,402,135.5,420.5,134.8z"></path><path class="ls0" d="M497.5,141.9c-17.5-3.9-35.5-6.3-54-7v594.3c18.5-0.7,36.5-3.1,54-7C630.2,692.3,729.4,573.7,729.4,432	S630.2,171.7,497.5,141.9z M675.4,432c0,65-25.3,126.1-71.3,172.1c-30.1,30.1-66.7,51.3-106.6,62.4v-469	c39.9,11.1,76.5,32.3,106.6,62.4C650.1,305.9,675.4,367,675.4,432z"></path></g><g><path class="fs0" d="M707.3,156.7C633.8,83.2,536,42.7,432,42.7c-104,0-201.8,40.5-275.3,114C83.2,230.2,42.7,328,42.7,432	s40.5,201.8,114,275.3c73.5,73.5,171.3,114,275.3,114c104,0,201.8-40.5,275.3-114c73.5-73.5,114-171.3,114-275.3	C821.3,328,780.8,230.2,707.3,156.7z M669.1,669.1c-63.3,63.3-147.5,98.2-237.1,98.2c-89.6,0-173.8-34.9-237.1-98.2	C131.6,605.8,96.7,521.6,96.7,432s34.9-173.8,98.2-237.1c63.3-63.3,147.5-98.2,237.1-98.2s173.8,34.9,237.1,98.2	c63.3,63.3,98.2,147.5,98.2,237.1S732.4,605.8,669.1,669.1z"></path></g></svg></svg><style>@media (prefers-color-scheme: light) { :root { filter: contrast(1) brightness(1); } }
@media (prefers-color-scheme: dark) { :root { filter: none; } }
</style></svg>